<?xml version="1.0" encoding="UTF-8"?>
<svg xmlns="http://www.w3.org/2000/svg" viewBox="28.479999999999997 25.950000000000003 923.36 1458.27">
  <title>Complete Apartment Floorplan - All Rooms</title>
  <g id="walls">
    <polygon points="500.38,1325.78 485.38,1325.78 485.38,1464.22 500.38,1464.22" fill="#000000" stroke="#000000" stroke-width="0.5"/>
    <polygon points="492.88,1456.72 492.88,1471.72 626.59,1471.72 626.59,1456.72" fill="#000000" stroke="#000000" stroke-width="0.5"/>
    <polygon points="619.09,1464.22 634.09,1464.22 634.09,1325.49 619.09,1325.49" fill="#000000" stroke="#000000" stroke-width="0.5"/>
    <polygon points="626.61,1332.99 626.57,1317.99 492.86,1318.28 492.90,1333.28" fill="#000000" stroke="#000000" stroke-width="0.5"/>
    <polygon points="40.98,265.30 55.98,265.30 55.98,45.95 40.98,45.95" fill="#000000" stroke="#000000" stroke-width="0.5"/>
    <polygon points="48.48,38.45 48.48,53.45 594.09,53.45 594.09,38.45" fill="#000000" stroke="#000000" stroke-width="0.5"/>
    <polygon points="601.59,45.95 586.59,45.95 586.59,264.90 601.59,264.90" fill="#000000" stroke="#000000" stroke-width="0.5"/>
    <polygon points="594.10,272.40 594.08,257.40 48.47,257.80 48.49,272.80" fill="#000000" stroke="#000000" stroke-width="0.5"/>
    <polygon points="786.68,1120.98 786.68,1105.98 632.78,1105.98 632.78,1120.98" fill="#000000" stroke="#000000" stroke-width="0.5"/>
    <polygon points="625.28,1113.48 640.28,1113.48 640.28,910.66 625.28,910.66" fill="#000000" stroke="#000000" stroke-width="0.5"/>
    <polygon points="632.78,903.16 632.78,918.16 786.68,918.16 786.68,903.16" fill="#000000" stroke="#000000" stroke-width="0.5"/>
    <polygon points="794.18,910.66 779.18,910.66 779.18,1113.48 794.18,1113.48" fill="#000000" stroke="#000000" stroke-width="0.5"/>
    <polygon points="931.84,1318.14 931.84,1303.14 632.78,1303.14 632.78,1318.14" fill="#000000" stroke="#000000" stroke-width="0.5"/>
    <polygon points="625.28,1310.64 640.28,1310.64 640.28,1113.48 625.28,1113.48" fill="#000000" stroke="#000000" stroke-width="0.5"/>
    <polygon points="632.78,1105.98 632.78,1120.98 786.68,1120.98 786.68,1105.98" fill="#000000" stroke="#000000" stroke-width="0.5"/>
    <polygon points="779.18,1113.48 794.18,1113.48 794.18,910.66 779.18,910.66" fill="#000000" stroke="#000000" stroke-width="0.5"/>
    <polygon points="786.68,903.16 786.68,918.16 931.84,918.16 931.84,903.16" fill="#000000" stroke="#000000" stroke-width="0.5"/>
    <polygon points="939.34,910.66 924.34,910.66 924.34,1310.64 939.34,1310.64" fill="#000000" stroke="#000000" stroke-width="0.5"/>
    <polygon points="616.78,1217.82 616.78,1202.82 502.56,1202.82 502.56,1217.82" fill="#000000" stroke="#000000" stroke-width="0.5"/>
    <polygon points="499.54,1217.19 505.58,1203.45 417.76,1164.84 411.72,1178.58" fill="#000000" stroke="#000000" stroke-width="0.5"/>
    <polygon points="414.74,1179.21 414.74,1164.21 373.42,1164.21 373.42,1179.21" fill="#000000" stroke="#000000" stroke-width="0.5"/>
    <polygon points="365.92,1171.71 380.92,1171.71 380.92,941.50 365.92,941.50" fill="#000000" stroke="#000000" stroke-width="0.5"/>
    <polygon points="373.42,934.00 373.42,949.00 427.29,949.00 427.29,934.00" fill="#000000" stroke="#000000" stroke-width="0.5"/>
    <polygon points="421.53,936.70 433.05,946.30 501.66,863.90 490.14,854.30" fill="#000000" stroke="#000000" stroke-width="0.5"/>
    <polygon points="495.90,851.60 495.90,866.60 616.78,866.60 616.78,851.60" fill="#000000" stroke="#000000" stroke-width="0.5"/>
    <polygon points="624.28,859.10 609.28,859.10 609.28,1210.32 624.28,1210.32" fill="#000000" stroke="#000000" stroke-width="0.5"/>
    <polygon points="931.84,918.16 931.84,903.16 632.78,903.16 632.78,918.16" fill="#000000" stroke="#000000" stroke-width="0.5"/>
    <polygon points="640.28,910.66 625.28,910.66 625.28,1210.32 640.28,1210.32" fill="#000000" stroke="#000000" stroke-width="0.5"/>
    <polygon points="632.78,1217.82 632.78,1202.82 616.78,1202.82 616.78,1217.82" fill="#000000" stroke="#000000" stroke-width="0.5"/>
    <polygon points="609.28,1210.32 624.28,1210.32 624.28,859.10 609.28,859.10" fill="#000000" stroke="#000000" stroke-width="0.5"/>
    <polygon points="616.78,866.60 616.78,851.60 495.90,851.60 495.90,866.60" fill="#000000" stroke="#000000" stroke-width="0.5"/>
    <polygon points="488.40,859.10 503.40,859.10 503.40,280.30 488.40,280.30" fill="#000000" stroke="#000000" stroke-width="0.5"/>
    <polygon points="495.90,272.80 495.90,287.80 931.84,287.80 931.84,272.80" fill="#000000" stroke="#000000" stroke-width="0.5"/>
    <polygon points="939.34,280.30 924.34,280.30 924.34,910.66 939.34,910.66" fill="#000000" stroke="#000000" stroke-width="0.5"/>
    <polygon points="482.90,594.21 482.90,579.21 63.48,579.21 63.48,594.21" fill="#000000" stroke="#000000" stroke-width="0.5"/>
    <polygon points="55.98,586.71 70.98,586.71 70.98,280.30 55.98,280.30" fill="#000000" stroke="#000000" stroke-width="0.5"/>
    <polygon points="63.48,272.80 63.48,287.80 482.90,287.80 482.90,272.80" fill="#000000" stroke="#000000" stroke-width="0.5"/>
    <polygon points="490.40,280.30 475.40,280.30 475.40,586.71 490.40,586.71" fill="#000000" stroke="#000000" stroke-width="0.5"/>
    <polygon points="360.42,1318.14 360.42,1303.14 63.48,1303.14 63.48,1318.14" fill="#000000" stroke="#000000" stroke-width="0.5"/>
    <polygon points="55.98,1310.64 70.98,1310.64 70.98,941.50 55.98,941.50" fill="#000000" stroke="#000000" stroke-width="0.5"/>
    <polygon points="63.48,934.00 63.48,949.00 360.42,949.00 360.42,934.00" fill="#000000" stroke="#000000" stroke-width="0.5"/>
    <polygon points="367.92,941.50 352.92,941.50 352.92,1310.64 367.92,1310.64" fill="#000000" stroke="#000000" stroke-width="0.5"/>
    <polygon points="488.66,859.19 477.14,849.59 415.44,923.70 426.96,933.30" fill="#000000" stroke="#000000" stroke-width="0.5"/>
    <polygon points="421.20,936.00 421.20,921.00 240.80,921.00 240.80,936.00" fill="#000000" stroke="#000000" stroke-width="0.5"/>
    <polygon points="233.30,928.50 248.30,928.50 248.30,599.71 233.30,599.71" fill="#000000" stroke="#000000" stroke-width="0.5"/>
    <polygon points="240.80,592.21 240.80,607.21 482.90,607.21 482.90,592.21" fill="#000000" stroke="#000000" stroke-width="0.5"/>
    <polygon points="490.40,599.71 475.40,599.71 475.40,854.39 490.40,854.39" fill="#000000" stroke="#000000" stroke-width="0.5"/>
    <polygon points="225.80,936.00 225.80,921.00 63.48,921.00 63.48,936.00" fill="#000000" stroke="#000000" stroke-width="0.5"/>
    <polygon points="55.98,928.50 70.98,928.50 70.98,736.55 55.98,736.55" fill="#000000" stroke="#000000" stroke-width="0.5"/>
    <polygon points="63.48,729.05 63.48,744.05 225.80,744.05 225.80,729.05" fill="#000000" stroke="#000000" stroke-width="0.5"/>
    <polygon points="233.30,736.55 218.30,736.55 218.30,928.50 233.30,928.50" fill="#000000" stroke="#000000" stroke-width="0.5"/>
    <polygon points="225.80,728.05 225.80,713.05 63.48,713.05 63.48,728.05" fill="#000000" stroke="#000000" stroke-width="0.5"/>
    <polygon points="55.98,720.55 70.98,720.55 70.98,599.71 55.98,599.71" fill="#000000" stroke="#000000" stroke-width="0.5"/>
    <polygon points="63.48,592.21 63.48,607.21 225.80,607.21 225.80,592.21" fill="#000000" stroke="#000000" stroke-width="0.5"/>
    <polygon points="233.30,599.71 218.30,599.71 218.30,720.55 233.30,720.55" fill="#000000" stroke="#000000" stroke-width="0.5"/>
    <polygon points="494.06,1220.76 479.06,1220.76 479.06,1310.64 494.06,1310.64" fill="#000000" stroke="#000000" stroke-width="0.5"/>
    <polygon points="486.56,1318.14 486.56,1303.14 373.42,1303.14 373.42,1318.14" fill="#000000" stroke="#000000" stroke-width="0.5"/>
    <polygon points="365.92,1310.64 380.92,1310.64 380.92,1187.71 365.92,1187.71" fill="#000000" stroke="#000000" stroke-width="0.5"/>
    <polygon points="373.42,1180.21 373.42,1195.21 411.38,1195.21 411.38,1180.21" fill="#000000" stroke="#000000" stroke-width="0.5"/>
    <polygon points="414.40,1180.84 408.36,1194.58 483.54,1227.63 489.58,1213.89" fill="#000000" stroke="#000000" stroke-width="0.5"/>
    <polygon points="616.78,1318.14 616.78,1303.14 502.56,1303.14 502.56,1318.14" fill="#000000" stroke="#000000" stroke-width="0.5"/>
    <polygon points="495.06,1310.64 510.06,1310.64 510.06,1226.32 495.06,1226.32" fill="#000000" stroke="#000000" stroke-width="0.5"/>
    <polygon points="502.56,1218.82 502.56,1233.82 616.78,1233.82 616.78,1218.82" fill="#000000" stroke="#000000" stroke-width="0.5"/>
    <polygon points="624.28,1226.32 609.28,1226.32 609.28,1310.64 624.28,1310.64" fill="#000000" stroke="#000000" stroke-width="0.5"/>
  </g>
  <g id="openings">
    <line x1="1000.83" y1="280.30" x2="1079.91" y2="280.30" stroke="#ffffff" stroke-width="1.0" />
<path d="M 1000.83,280.30 A 79.09,79.09 0 0,1 1000.83,359.39" fill="none" stroke="#000000" stroke-width="1.0" />
<line x1="1000.83" y1="280.30" x2="1000.83" y2="359.39" stroke="#000000" stroke-width="1.0" />
    <line x1="437.60" y1="929.12" x2="485.59" y2="871.48" stroke="#ffffff" stroke-width="1.0" />
<path d="M 437.60,929.12 A 75.00,75.00 0 0,1 495.24,977.11" fill="none" stroke="#000000" stroke-width="1.0" />
<line x1="437.60" y1="929.12" x2="495.24" y2="977.11" stroke="#000000" stroke-width="1.0" />
    <line x1="495.90" y1="523.33" x2="495.90" y2="432.59" stroke="#ffffff" stroke-width="1.0" />
<path d="M 495.90,523.33 A 90.74,90.74 0 0,1 586.64,523.33" fill="none" stroke="#000000" stroke-width="1.0" />
<line x1="495.90" y1="523.33" x2="586.64" y2="523.33" stroke="#000000" stroke-width="1.0" />
    <line x1="482.90" y1="385.71" x2="482.90" y2="448.17" stroke="#ffffff" stroke-width="1.0" />
<path d="M 482.90,385.71 A 62.46,62.46 0 0,1 420.44,385.71" fill="none" stroke="#000000" stroke-width="1.0" />
<line x1="482.90" y1="385.71" x2="420.44" y2="385.71" stroke="#000000" stroke-width="1.0" />
    <line x1="-517.23" y1="720.55" x2="-583.22" y2="720.55" stroke="#ffffff" stroke-width="1.0" />
<path d="M -517.23,720.55 A 65.99,65.99 0 0,1 -517.23,654.56" fill="none" stroke="#000000" stroke-width="1.0" />
<line x1="-517.23" y1="720.55" x2="-517.23" y2="654.56" stroke="#000000" stroke-width="1.0" />
    <line x1="499.84" y1="1209.13" x2="417.46" y2="1172.90" stroke="#ffffff" stroke-width="1.0" />
<path d="M 499.84,1209.13 A 90.00,90.00 0 0,1 536.07,1126.74" fill="none" stroke="#000000" stroke-width="1.0" />
<line x1="499.84" y1="1209.13" x2="536.07" y2="1126.74" stroke="#000000" stroke-width="1.0" />
    <line x1="616.78" y1="977.59" x2="616.78" y2="1091.83" stroke="#ffffff" stroke-width="1.0" />
<path d="M 616.78,977.59 A 114.24,114.24 0 0,1 502.54,977.59" fill="none" stroke="#000000" stroke-width="1.0" />
<line x1="616.78" y1="977.59" x2="502.54" y2="977.59" stroke="#000000" stroke-width="1.0" />
    <line x1="105.88" y1="1310.64" x2="17.24" y2="1310.64" stroke="#ffffff" stroke-width="1.0" />
<path d="M 105.88,1310.64 A 88.64,88.64 0 0,1 105.88,1222.00" fill="none" stroke="#000000" stroke-width="1.0" />
<line x1="105.88" y1="1310.64" x2="105.88" y2="1222.00" stroke="#000000" stroke-width="1.0" />
    <polygon points="735.70,277.80 735.70,282.80 885.74,282.80 885.74,277.80" fill="#e0e0ff" stroke="#000000" stroke-width="1.0" />
<line x1="735.70" y1="280.30" x2="885.74" y2="280.30" stroke="#000000" stroke-width="0.5" />
    <polygon points="1086.97,277.80 1086.97,282.80 1214.07,282.80 1214.07,277.80" fill="#e0e0ff" stroke="#000000" stroke-width="1.0" />
<line x1="1086.97" y1="280.30" x2="1214.07" y2="280.30" stroke="#000000" stroke-width="0.5" />
    <polygon points="1220.78,277.80 1220.78,282.80 1339.05,282.80 1339.05,277.80" fill="#e0e0ff" stroke="#000000" stroke-width="1.0" />
<line x1="1220.78" y1="280.30" x2="1339.05" y2="280.30" stroke="#000000" stroke-width="0.5" />
    <polygon points="184.97,1313.14 184.97,1308.14 32.33,1308.14 32.33,1313.14" fill="#e0e0ff" stroke="#000000" stroke-width="1.0" />
<line x1="184.97" y1="1310.64" x2="32.33" y2="1310.64" stroke="#000000" stroke-width="0.5" />
    <polygon points="86.15,1313.14 86.15,1308.14 22.87,1308.14 22.87,1313.14" fill="#e0e0ff" stroke="#000000" stroke-width="1.0" />
<line x1="86.15" y1="1310.64" x2="22.87" y2="1310.64" stroke="#000000" stroke-width="0.5" />
    <polygon points="934.34,1633.51 929.34,1633.51 929.34,1783.99 934.34,1783.99" fill="#e0e0ff" stroke="#000000" stroke-width="1.0" />
<line x1="931.84" y1="1633.51" x2="931.84" y2="1783.99" stroke="#000000" stroke-width="0.5" />
  </g>
</svg>