<?xml version="1.0" encoding="UTF-8"?>
<svg xmlns="http://www.w3.org/2000/svg" viewBox="45.0 20.0 110.0 110.0">
  <title>Styled Room Example</title>
  <g id="walls">
    <polygon points="75.00,42.50 75.00,57.50 125.00,57.50 125.00,42.50" fill="#1a1a3e" stroke="#0f0f23" stroke-width="1.5"/>
    <polygon points="132.50,50.00 117.50,50.00 117.50,100.00 132.50,100.00" fill="#1a1a3e" stroke="#0f0f23" stroke-width="1.5"/>
    <polygon points="125.00,107.50 125.00,92.50 75.00,92.50 75.00,107.50" fill="#1a1a3e" stroke="#0f0f23" stroke-width="1.5"/>
    <polygon points="67.50,100.00 82.50,100.00 82.50,50.00 67.50,50.00" fill="#1a1a3e" stroke="#0f0f23" stroke-width="1.5"/>
    <polygon points="75.00,92.50 75.00,107.50 125.00,107.50 125.00,92.50" fill="#1a1a3e" stroke="#0f0f23" stroke-width="1.5"/>
  </g>
  <g id="openings">
    <line x1="75.00" y1="87.50" x2="75.00" y2="62.50" stroke="#ffffff" stroke-width="2.0" />
<path d="M 75.00,87.50 A 25.00,25.00 0 0,1 100.00,87.50" fill="none" stroke="#990000" stroke-width="1.5" />
<line x1="75.00" y1="87.50" x2="100.00" y2="87.50" stroke="#cc0000" stroke-width="2.0" />
    <polygon points="82.50,97.50 82.50,102.50 117.50,102.50 117.50,97.50" fill="#c0ffc0" stroke="#00aa00" stroke-width="1.5" />
<line x1="82.50" y1="100.00" x2="117.50" y2="100.00" stroke="#006600" stroke-width="1.0" />
  </g>
</svg>