<?xml version="1.0" encoding="UTF-8"?>
<svg xmlns="http://www.w3.org/2000/svg" viewBox="-20.0 -20.0 1040.0 840.0">
  <title>Sample Floorplan</title>
  <rect x="-20.0" y="-20.0" width="1040.0" height="840.0" fill="#ffffff"/>
  <g id="walls">
    <polygon points="-2.00,-2.00 -2.00,2.00 352.00,2.00 352.00,-2.00" fill="#000000" stroke="#000000" stroke-width="0.5"/>
    <polygon points="352.00,-2.00 348.00,-2.00 348.00,302.00 352.00,302.00" fill="#000000" stroke="#000000" stroke-width="0.5"/>
    <polygon points="352.00,302.00 352.00,298.00 148.00,298.00 148.00,302.00" fill="#000000" stroke="#000000" stroke-width="0.5"/>
    <polygon points="152.00,302.00 152.00,298.00 -2.00,298.00 -2.00,302.00" fill="#000000" stroke="#000000" stroke-width="0.5"/>
    <polygon points="-2.00,302.00 2.00,302.00 2.00,-2.00 -2.00,-2.00" fill="#000000" stroke="#000000" stroke-width="0.5"/>
    <polygon points="148.00,298.00 148.00,302.00 252.00,302.00 252.00,298.00" fill="#000000" stroke="#000000" stroke-width="0.5"/>
    <polygon points="252.00,298.00 248.00,298.00 248.00,372.00 252.00,372.00" fill="#000000" stroke="#000000" stroke-width="0.5"/>
    <polygon points="252.00,372.00 252.00,368.00 148.00,368.00 148.00,372.00" fill="#000000" stroke="#000000" stroke-width="0.5"/>
    <polygon points="148.00,372.00 152.00,372.00 152.00,298.00 148.00,298.00" fill="#000000" stroke="#000000" stroke-width="0.5"/>
    <polygon points="248.00,368.00 248.00,372.00 352.00,372.00 352.00,368.00" fill="#000000" stroke="#000000" stroke-width="0.5"/>
    <polygon points="352.00,368.00 348.00,368.00 348.00,552.00 352.00,552.00" fill="#000000" stroke="#000000" stroke-width="0.5"/>
    <polygon points="352.00,552.00 352.00,548.00 248.00,548.00 248.00,552.00" fill="#000000" stroke="#000000" stroke-width="0.5"/>
    <polygon points="248.00,552.00 252.00,552.00 252.00,368.00 248.00,368.00" fill="#000000" stroke="#000000" stroke-width="0.5"/>
    <polygon points="348.00,298.00 348.00,302.00 652.00,302.00 652.00,298.00" fill="#000000" stroke="#000000" stroke-width="0.5"/>
    <polygon points="652.00,298.00 648.00,298.00 648.00,552.00 652.00,552.00" fill="#000000" stroke="#000000" stroke-width="0.5"/>
    <polygon points="652.00,552.00 652.00,548.00 348.00,548.00 348.00,552.00" fill="#000000" stroke="#000000" stroke-width="0.5"/>
    <polygon points="348.00,552.00 352.00,552.00 352.00,298.00 348.00,298.00" fill="#000000" stroke="#000000" stroke-width="0.5"/>
    <polygon points="-2.00,548.00 -2.00,552.00 452.00,552.00 452.00,548.00" fill="#000000" stroke="#000000" stroke-width="0.5"/>
    <polygon points="452.00,548.00 448.00,548.00 448.00,702.00 452.00,702.00" fill="#000000" stroke="#000000" stroke-width="0.5"/>
    <polygon points="452.00,702.00 452.00,698.00 -2.00,698.00 -2.00,702.00" fill="#000000" stroke="#000000" stroke-width="0.5"/>
    <polygon points="-2.00,702.00 2.00,702.00 2.00,548.00 -2.00,548.00" fill="#000000" stroke="#000000" stroke-width="0.5"/>
    <polygon points="448.00,548.00 448.00,552.00 652.00,552.00 652.00,548.00" fill="#000000" stroke="#000000" stroke-width="0.5"/>
    <polygon points="652.00,548.00 648.00,548.00 648.00,702.00 652.00,702.00" fill="#000000" stroke="#000000" stroke-width="0.5"/>
    <polygon points="652.00,702.00 652.00,698.00 548.00,698.00 548.00,702.00" fill="#000000" stroke="#000000" stroke-width="0.5"/>
    <polygon points="552.00,702.00 552.00,698.00 448.00,698.00 448.00,702.00" fill="#000000" stroke="#000000" stroke-width="0.5"/>
    <polygon points="448.00,702.00 452.00,702.00 452.00,548.00 448.00,548.00" fill="#000000" stroke="#000000" stroke-width="0.5"/>
    <polygon points="448.00,698.00 448.00,702.00 552.00,702.00 552.00,698.00" fill="#000000" stroke="#000000" stroke-width="0.5"/>
    <polygon points="552.00,698.00 548.00,698.00 548.00,802.00 552.00,802.00" fill="#000000" stroke="#000000" stroke-width="0.5"/>
    <polygon points="552.00,802.00 552.00,798.00 448.00,798.00 448.00,802.00" fill="#000000" stroke="#000000" stroke-width="0.5"/>
    <polygon points="448.00,802.00 452.00,802.00 452.00,698.00 448.00,698.00" fill="#000000" stroke="#000000" stroke-width="0.5"/>
    <polygon points="548.00,698.00 548.00,702.00 652.00,702.00 652.00,698.00" fill="#000000" stroke="#000000" stroke-width="0.5"/>
    <polygon points="652.00,698.00 648.00,698.00 648.00,802.00 652.00,802.00" fill="#000000" stroke="#000000" stroke-width="0.5"/>
    <polygon points="652.00,802.00 652.00,798.00 548.00,798.00 548.00,802.00" fill="#000000" stroke="#000000" stroke-width="0.5"/>
    <polygon points="548.00,802.00 552.00,802.00 552.00,698.00 548.00,698.00" fill="#000000" stroke="#000000" stroke-width="0.5"/>
    <polygon points="348.00,-2.00 348.00,2.00 1002.00,2.00 1002.00,-2.00" fill="#000000" stroke="#000000" stroke-width="0.5"/>
    <polygon points="1002.00,-2.00 998.00,-2.00 998.00,802.00 1002.00,802.00" fill="#000000" stroke="#000000" stroke-width="0.5"/>
    <polygon points="1002.00,802.00 1002.00,798.00 648.00,798.00 648.00,802.00" fill="#000000" stroke="#000000" stroke-width="0.5"/>
    <polygon points="648.00,802.00 652.00,802.00 652.00,698.00 648.00,698.00" fill="#000000" stroke="#000000" stroke-width="0.5"/>
    <polygon points="648.00,702.00 652.00,702.00 652.00,548.00 648.00,548.00" fill="#000000" stroke="#000000" stroke-width="0.5"/>
    <polygon points="648.00,552.00 652.00,552.00 652.00,298.00 648.00,298.00" fill="#000000" stroke="#000000" stroke-width="0.5"/>
    <polygon points="652.00,302.00 652.00,298.00 348.00,298.00 348.00,302.00" fill="#000000" stroke="#000000" stroke-width="0.5"/>
    <polygon points="348.00,302.00 352.00,302.00 352.00,-2.00 348.00,-2.00" fill="#000000" stroke="#000000" stroke-width="0.5"/>
  </g>
  <g id="openings">
    <g id="Door" fill="#ffffff" stroke="#000000" style="fill-opacity: 1; stroke-width: 1.0; stroke-opacity: 1;" class="Door">
  <g id="Threshold" class="Threshold">
    <polygon points="352.00,105.00 348.00,105.00 348.00,195.00 352.00,195.00" />
  </g>
  <g id="Panel" fill="none" class="Panel">
    <path d="M 348.00,195.00 A 90.00,90.00 0 0,1 258.00,105.00" stroke="#000000" stroke-width="1.0" />
    <line x1="348.00" y1="105.00" x2="258.00" y2="105.00" stroke="#000000" stroke-width="1.0" />
  </g>
</g>
    <g id="Door" fill="#ffffff" stroke="#000000" style="fill-opacity: 1; stroke-width: 1.0; stroke-opacity: 1;" class="Door">
  <g id="Threshold" class="Threshold">
    <polygon points="240.00,372.00 240.00,368.00 160.00,368.00 160.00,372.00" />
  </g>
  <g id="Panel" fill="none" class="Panel">
    <path d="M 160.00,368.00 A 80.00,80.00 0 0,1 240.00,288.00" stroke="#000000" stroke-width="1.0" />
    <line x1="240.00" y1="368.00" x2="240.00" y2="288.00" stroke="#000000" stroke-width="1.0" />
  </g>
</g>
    <g id="Door" fill="#ffffff" stroke="#000000" style="fill-opacity: 1; stroke-width: 1.0; stroke-opacity: 1;" class="Door">
  <g id="Threshold" class="Threshold">
    <polygon points="595.00,552.00 595.00,548.00 505.00,548.00 505.00,552.00" />
  </g>
  <g id="Panel" fill="none" class="Panel">
    <path d="M 505.00,548.00 A 90.00,90.00 0 0,1 595.00,458.00" stroke="#000000" stroke-width="1.0" />
    <line x1="595.00" y1="548.00" x2="595.00" y2="458.00" stroke="#000000" stroke-width="1.0" />
  </g>
</g>
    <g id="Door" fill="#ffffff" stroke="#000000" style="fill-opacity: 1; stroke-width: 1.0; stroke-opacity: 1;" class="Door">
  <g id="Threshold" class="Threshold">
    <polygon points="452.00,580.00 448.00,580.00 448.00,670.00 452.00,670.00" />
  </g>
  <g id="Panel" fill="none" class="Panel">
    <path d="M 448.00,670.00 A 90.00,90.00 0 0,1 358.00,580.00" stroke="#000000" stroke-width="1.0" />
    <line x1="448.00" y1="580.00" x2="358.00" y2="580.00" stroke="#000000" stroke-width="1.0" />
  </g>
</g>
    <g id="Door" fill="#ffffff" stroke="#000000" style="fill-opacity: 1; stroke-width: 1.0; stroke-opacity: 1;" class="Door">
  <g id="Threshold" class="Threshold">
    <polygon points="545.00,702.00 545.00,698.00 455.00,698.00 455.00,702.00" />
  </g>
  <g id="Panel" fill="none" class="Panel">
    <path d="M 455.00,698.00 A 90.00,90.00 0 0,1 545.00,608.00" stroke="#000000" stroke-width="1.0" />
    <line x1="545.00" y1="698.00" x2="545.00" y2="608.00" stroke="#000000" stroke-width="1.0" />
  </g>
</g>
    <g id="Door" fill="#ffffff" stroke="#000000" style="fill-opacity: 1; stroke-width: 1.0; stroke-opacity: 1;" class="Door">
  <g id="Threshold" class="Threshold">
    <polygon points="645.00,702.00 645.00,698.00 555.00,698.00 555.00,702.00" />
  </g>
  <g id="Panel" fill="none" class="Panel">
    <path d="M 555.00,698.00 A 90.00,90.00 0 0,1 645.00,608.00" stroke="#000000" stroke-width="1.0" />
    <line x1="645.00" y1="698.00" x2="645.00" y2="608.00" stroke="#000000" stroke-width="1.0" />
  </g>
</g>
    <g id="Door" fill="#ffffff" stroke="#000000" style="fill-opacity: 1; stroke-width: 1.0; stroke-opacity: 1;" class="Door">
  <g id="Threshold" class="Threshold">
    <polygon points="650.00,802.00 650.00,798.00 550.00,798.00 550.00,802.00" />
  </g>
  <g id="Panel" fill="none" class="Panel">
    <path d="M 550.00,798.00 A 100.00,100.00 0 0,1 650.00,698.00" stroke="#000000" stroke-width="1.0" />
    <line x1="650.00" y1="798.00" x2="650.00" y2="698.00" stroke="#000000" stroke-width="1.0" />
  </g>
</g>
    <g id="Door" fill="#ffffff" stroke="#000000" style="fill-opacity: 1; stroke-width: 1.0; stroke-opacity: 1;" class="Door">
  <g id="Threshold" class="Threshold">
    <polygon points="390.00,-2.00 390.00,2.00 510.00,2.00 510.00,-2.00" />
  </g>
  <g id="Panel" fill="none" class="Panel">
    <path d="M 510.00,2.00 A 120.00,120.00 0 0,1 390.00,122.00" stroke="#000000" stroke-width="1.0" />
    <line x1="390.00" y1="2.00" x2="390.00" y2="122.00" stroke="#000000" stroke-width="1.0" />
  </g>
</g>
    <g id="Window" class="Window">
  <polygon points="115.00,-2.50 115.00,2.50 235.00,2.50 235.00,-2.50" fill="#e0e0ff" stroke="#000000" stroke-width="1.0" />
  <line x1="115.00" y1="0.00" x2="235.00" y2="0.00" stroke="#000000" stroke-width="0.5" />
  <line x1="115.00" y1="-1.25" x2="235.00" y2="-1.25" stroke="#000000" stroke-width="0.5" />
  <line x1="115.00" y1="1.25" x2="235.00" y2="1.25" stroke="#000000" stroke-width="0.5" />
</g>
    <g id="Window" class="Window">
  <polygon points="-2.50,210.00 2.50,210.00 2.50,90.00 -2.50,90.00" fill="#e0e0ff" stroke="#000000" stroke-width="1.0" />
  <line x1="0.00" y1="210.00" x2="0.00" y2="90.00" stroke="#000000" stroke-width="0.5" />
  <line x1="-1.25" y1="210.00" x2="-1.25" y2="90.00" stroke="#000000" stroke-width="0.5" />
  <line x1="1.25" y1="210.00" x2="1.25" y2="90.00" stroke="#000000" stroke-width="0.5" />
</g>
    <g id="Window" class="Window">
  <polygon points="-2.50,685.00 2.50,685.00 2.50,565.00 -2.50,565.00" fill="#e0e0ff" stroke="#000000" stroke-width="1.0" />
  <line x1="0.00" y1="685.00" x2="0.00" y2="565.00" stroke="#000000" stroke-width="0.5" />
  <line x1="-1.25" y1="685.00" x2="-1.25" y2="565.00" stroke="#000000" stroke-width="0.5" />
  <line x1="1.25" y1="685.00" x2="1.25" y2="565.00" stroke="#000000" stroke-width="0.5" />
</g>
    <g id="Window" class="Window">
  <polygon points="530.00,802.50 530.00,797.50 470.00,797.50 470.00,802.50" fill="#e0e0ff" stroke="#000000" stroke-width="1.0" />
  <line x1="530.00" y1="800.00" x2="470.00" y2="800.00" stroke="#000000" stroke-width="0.5" />
  <line x1="530.00" y1="801.25" x2="470.00" y2="801.25" stroke="#000000" stroke-width="0.5" />
  <line x1="530.00" y1="798.75" x2="470.00" y2="798.75" stroke="#000000" stroke-width="0.5" />
</g>
    <g id="Window" class="Window">
  <polygon points="550.00,-2.50 550.00,2.50 750.00,2.50 750.00,-2.50" fill="#e0e0ff" stroke="#000000" stroke-width="1.0" />
  <line x1="550.00" y1="0.00" x2="750.00" y2="0.00" stroke="#000000" stroke-width="0.5" />
  <line x1="550.00" y1="-1.25" x2="750.00" y2="-1.25" stroke="#000000" stroke-width="0.5" />
  <line x1="550.00" y1="1.25" x2="750.00" y2="1.25" stroke="#000000" stroke-width="0.5" />
</g>
    <g id="Window" class="Window">
  <polygon points="1002.50,125.00 997.50,125.00 997.50,275.00 1002.50,275.00" fill="#e0e0ff" stroke="#000000" stroke-width="1.0" />
  <line x1="1000.00" y1="125.00" x2="1000.00" y2="275.00" stroke="#000000" stroke-width="0.5" />
  <line x1="1001.25" y1="125.00" x2="1001.25" y2="275.00" stroke="#000000" stroke-width="0.5" />
  <line x1="998.75" y1="125.00" x2="998.75" y2="275.00" stroke="#000000" stroke-width="0.5" />
</g>
    <g id="Window" class="Window">
  <polygon points="1002.50,425.00 997.50,425.00 997.50,575.00 1002.50,575.00" fill="#e0e0ff" stroke="#000000" stroke-width="1.0" />
  <line x1="1000.00" y1="425.00" x2="1000.00" y2="575.00" stroke="#000000" stroke-width="0.5" />
  <line x1="1001.25" y1="425.00" x2="1001.25" y2="575.00" stroke="#000000" stroke-width="0.5" />
  <line x1="998.75" y1="425.00" x2="998.75" y2="575.00" stroke="#000000" stroke-width="0.5" />
</g>
    <g id="Window" class="Window">
  <polygon points="925.00,802.50 925.00,797.50 725.00,797.50 725.00,802.50" fill="#e0e0ff" stroke="#000000" stroke-width="1.0" />
  <line x1="925.00" y1="800.00" x2="725.00" y2="800.00" stroke="#000000" stroke-width="0.5" />
  <line x1="925.00" y1="801.25" x2="725.00" y2="801.25" stroke="#000000" stroke-width="0.5" />
  <line x1="925.00" y1="798.75" x2="725.00" y2="798.75" stroke="#000000" stroke-width="0.5" />
</g>
  </g>
</svg>